<svg width="180" height="180" viewBox="0 0 180 180" fill="none" xmlns="http://www.w3.org/2000/svg">
  <rect width="180" height="180" rx="40" fill="#050505"/>
  <path d="M89 35C53 35 27 58 27 91C27 124 52 146 86 146H100C111 146 117 137 112 128C108 121 111 113 121 113H130C145 113 154 103 154 88C154 57 126 35 89 35Z" fill="#a3e635"/>
  <circle cx="112" cy="80" r="17" fill="#050505"/>
  <circle cx="67" cy="67" r="9" fill="#050505"/>
  <circle cx="53" cy="96" r="9" fill="#050505"/>
  <circle cx="78" cy="120" r="9" fill="#050505"/>
  <circle cx="101" cy="55" r="8" fill="#f4f4f5"/>
</svg>
